<?xml version="1.0" encoding="utf-8"?>
<!-- Generator: Adobe Illustrator 19.2.1, SVG Export Plug-In . SVG Version: 6.00 Build 0)  -->
<svg version="1.1" id="layer" xmlns="http://www.w3.org/2000/svg" xmlns:xlink="http://www.w3.org/1999/xlink" x="0px" y="0px"
	 viewBox="0 0 652 652" style="enable-background:new 0 0 652 652;" xml:space="preserve">
<style type="text/css">
	.st0{fill:#7E8082;}
	.st1{fill:#5F6062;}
	.st2{fill:#E31937;}
</style>
<polygon class="st0" points="20.9,423 20.9,380.2 47.7,380.2 47.7,386 29.8,386 29.8,398 44.5,398 44.5,403.7 29.8,403.7 
	29.8,416.9 49.1,416.9 49.1,423 "/>
<polygon class="st0" points="52.9,423 52.9,380.2 60.8,380.2 80.6,409.4 80.6,380.2 87.8,380.2 87.8,423 79.8,423 60.1,393.8 
	60.1,423 "/>
<g>
	<path class="st0" d="M129.2,421.9c-5.4,1.4-10,2.1-13.9,2.1c-7.4,0-13.1-1.9-17.1-5.8c-4-3.9-6-9.4-6-16.7c0-7.2,2-12.7,6-16.6
		c4-3.9,9.6-5.8,17-5.8c4.7,0,9.4,0.5,14,1.6v7c-5.4-1.8-9.8-2.8-13.2-2.8c-4.5,0-8.1,1.5-10.5,4.4c-2.5,2.9-3.7,7-3.7,12.3
		c0,5.1,1.3,9.2,4,12.1c2.6,2.9,6.3,4.4,11,4.4c1,0,2.2-0.1,3.6-0.4v-14.1h8.9V421.9"/>
	<polygon class="st0" points="135.5,423 135.5,380.2 144.4,380.2 144.4,416.9 163.7,416.9 163.7,423 	"/>
	<path class="st0" d="M174.8,405.8h13.3l-6.6-17L174.8,405.8z M161.7,423l16.6-42.8h8.9l16.7,42.8h-9.1l-4.4-11.4h-17.7l-4.4,11.4
		H161.7z"/>
	<polygon class="st0" points="206.4,423 206.4,380.2 214.3,380.2 234.1,409.4 234.1,380.2 241.3,380.2 241.3,423 233.3,423 
		213.6,393.8 213.6,423 	"/>
	<path class="st0" d="M257.3,416.9h6.6c4.7,0,8.2-1.3,10.5-3.9c2.3-2.6,3.5-6.6,3.5-11.8c0-4.1-0.9-7.5-2.8-10.2
		c-1.3-1.9-2.8-3.2-4.6-3.9c-1.8-0.7-4.4-1.1-7.8-1.1h-5.4V416.9 M248.4,423v-42.8h18.4c6.6,0,11.7,1.8,15.2,5.3
		c3.5,3.5,5.3,8.6,5.3,15.2c0,7-1.9,12.5-5.6,16.4c-3.7,3.9-9,5.9-15.7,5.9H248.4z"/>
	<path class="st1" d="M335.4,405.5h13.2l-6.6-17L335.4,405.5z M322.2,422.6l16.6-42.8h8.9l16.7,42.8h-9.1l-4.4-11.4h-17.7l-4.4,11.4
		H322.2z"/>
	<polygon class="st1" points="372.8,422.6 372.8,385.7 357.5,385.7 357.5,379.8 397,379.8 397,385.7 381.7,385.7 381.7,422.6 	"/>
	<polygon class="st1" points="399.5,422.6 399.5,379.8 408.4,379.8 408.4,397.3 426.1,397.3 426.1,379.8 435,379.8 435,422.6 
		426.1,422.6 426.1,403.1 408.4,403.1 408.4,422.6 	"/>
	<polygon class="st1" points="442.2,422.6 442.2,379.8 451.1,379.8 451.1,416.6 470.4,416.6 470.4,422.6 	"/>
	<polygon class="st1" points="473.1,422.6 473.1,379.8 499.9,379.8 499.9,385.7 482,385.7 482,397.6 496.6,397.6 496.6,403.4 
		482,403.4 482,416.6 501.2,416.6 501.2,422.6 	"/>
	<polygon class="st1" points="513.3,422.6 513.3,385.7 498,385.7 498,379.8 537.5,379.8 537.5,385.7 522.2,385.7 522.2,422.6 	"/>
	<rect x="540" y="379.8" class="st1" width="8.9" height="42.8"/>
	<path class="st1" d="M590.5,421c-4.1,1.8-9.1,2.7-14.9,2.7c-7,0-12.5-2-16.4-5.9c-3.9-4-5.9-9.5-5.9-16.5c0-7.2,2-12.7,5.9-16.6
		c4-3.9,9.6-5.8,16.9-5.8c4.7,0,9.3,0.5,13.9,1.6v7c-5.2-1.8-9.6-2.8-13.2-2.8c-4.5,0-8,1.4-10.5,4.3c-2.4,2.9-3.7,6.9-3.7,12.2
		c0,5.2,1.3,9.2,3.9,12.1c2.6,2.9,6.3,4.3,11,4.3c4.2,0,8.5-1.1,12.7-3.2V421"/>
	<path class="st1" d="M592.3,422.3V415c4.6,1.9,8.5,2.9,11.8,2.9c2.3,0,4.1-0.5,5.4-1.5c1.3-1,2-2.4,2-4.2c0-1.4-0.4-2.6-1.2-3.5
		c-0.8-1-2.3-2.1-4.7-3.4l-2.9-1.6c-3.8-2.1-6.6-4.2-8.1-6.2c-1.6-2-2.4-4.3-2.4-6.9c0-3.5,1.3-6.4,3.9-8.5c2.6-2.1,6-3.2,10.3-3.2
		c3.4,0,7.3,0.5,11.6,1.4v6.9c-4.4-1.7-7.8-2.5-10.4-2.5c-2,0-3.5,0.4-4.7,1.3c-1.2,0.9-1.8,2-1.8,3.5c0,1.2,0.4,2.2,1.2,3.1
		c0.8,0.9,2.3,2,4.7,3.3l3.1,1.7c4.1,2.3,7,4.4,8.5,6.4c1.6,1.9,2.3,4.3,2.3,7.1c0,4-1.5,7.1-4.4,9.3c-2.9,2.3-7,3.4-12.2,3.4
		C600.9,423.7,596.9,423.2,592.3,422.3"/>
	<path class="st2" d="M218.3,326.4c-19.3-0.2-49.6-1-62.8-3.9c-29.8-6.5-63.5-28.8-22.8-49.4c14.7-7.4,52-11.6,52-11.6
		s-31,1.1-54.2,8.6c-78.1,25-47.4,69.3,42.3,78.9c8.1,0.9,16.1,1.7,23.4,2.3C200.5,346.3,210.3,336.1,218.3,326.4"/>
	<path class="st2" d="M186.4,261.3c0,0-46.6,7.1-55.8,20.2c-1.3,1.9-11.8,9.9,13.6,22.9c19.4,10,65.7,7.7,85.5,6.8
		c0.5-0.7,1-1.4,1.4-2c5.9-8.9,5.5-13.3,4.6-16.3c-16.8,1.9-95.1,9.4-87.5-10.7C154,266.9,186.4,261.3,186.4,261.3"/>
</g>
<g>
	<path class="st0" d="M306.7,419.5c1.7,1.8,3.6,3.8,7.3,3.9l1.8-0.1c1.5,0,3-3.6,1.4-5.7c-9.2-11.6-10.4-43.5-13.3-55
		c-1.3-5.2-3.9-17.5-3.9-17.5s-2.6-9-3.9-20.1c-9.3-7.7-18.7-11.6-48.1-4.7c-7.5,1.8-12.5,2.6-15.5,3.1
		c-5.9,8.7-12.2,14.4-14.8,17.2c-4.2,4.6-17.4,19-16.4,23c0,0,0.6,3.2,2,4.7c1.4,1.5,3.6,2.3,5.6,2.4c2,0.1,11.2-2,19.3-6.8
		c8.1-4.9,17.1-11.3,19.3-12.7c2.3-1.4,14.9-10.1,20.2-8.1c5.3,2,8.2,12.7,9.9,15.7c1.7,3,11.6,21.5,13.2,24.5
		C292.1,385.6,302.3,415,306.7,419.5"/>
	<path class="st0" d="M351.5,234.5c-2.8,1.6-19.6,12.7-25,16.2c-5.3,3.5-22.1,9.3-22.1,9.3s4.3-12-4.8-15.5
		c-9.1-3.5-15,0.4-17.4,4.3c-2.4,4-4.7,6.6-4.4,8.5s-0.6,4.1-2.2,5.8c-3.4,3.7-8.9,2.6-21.4-1.7c-12.6-4.4-30.2-21.1-35.8-29.3
		c-5.6-8.2-8.4-11.3-11.9-12.8c-3-1.3-4.9,1.1-4.5,3.3c0.7,3.8,14.9,26.5,17.9,30.7c3,4.2,16.5,18.8,20.1,24.2
		c6,9,7.1,16.8,5.2,23.9c-0.6,2.2-1.3,4.2-2,6.2c14.6-2.9,21.9-7.9,33.3-9c8.1-0.7,11.7,0.1,18.9,1.9c0.3-0.8,0.5-1.6,0.9-2.4
		c7.3-18,23.1-30.6,35.1-39.1c12-8.6,23.3-17.3,25.3-21.9C358.6,232.7,354.3,233,351.5,234.5"/>
</g>
</svg>
