<?xml version="1.0" encoding="UTF-8" standalone="no"?>
<!-- Created with Inkscape (http://www.inkscape.org/) -->

<svg
   xmlns:dc="http://purl.org/dc/elements/1.1/"
   xmlns:cc="http://creativecommons.org/ns#"
   xmlns:rdf="http://www.w3.org/1999/02/22-rdf-syntax-ns#"
   xmlns:svg="http://www.w3.org/2000/svg"
   xmlns="http://www.w3.org/2000/svg"
   version="1.1"
   width="240"
   height="240"
   id="svg2">
  <defs
     id="defs4" />
  <metadata
     id="metadata7">
    <rdf:RDF>
      <cc:Work
         rdf:about="">
        <dc:format>image/svg+xml</dc:format>
        <dc:type
           rdf:resource="http://purl.org/dc/dcmitype/StillImage" />
        <dc:title></dc:title>
      </cc:Work>
    </rdf:RDF>
  </metadata>
  <g
     id="layer2">
    <path
       d="M 53.454222,226.86826 48,221.70986 l 0,-8.2296 c 0,-17.757 7.031175,-46.58974 15.489349,-63.51721 C 74.833221,127.2604 91.0245,110.13483 112,98.65317 118.77087,94.9469 131.0279,90 133.44012,90 c 1.63313,0 5.05157,8.2763 4.26503,10.32597 -0.29576,0.77076 -3.9053,3.2496 -8.02119,5.50853 -26.4598,14.52198 -46.6494,38.11025 -58.157929,67.94808 -4.094309,10.6152 -8.944048,29.68568 -8.105175,31.87178 1.090037,2.8406 11.9346,-4.2034 20.655997,-13.417 10.085309,-10.65443 16.718207,-23.49482 20.585727,-39.85115 3.47373,-14.69093 3.19745,-13.92618 4.54437,-12.57926 1.6681,1.6681 2.22641,21.34776 0.89044,31.38692 -1.28362,9.64582 -4.60876,20.26059 -8.79255,28.06829 -6.044784,11.2806 -23.210026,25.4742 -37.267057,30.8155 l -5.129339,1.949 -5.454222,-5.1584 z M 33.49716,203.74996 c -6.81543,-14.9574 -5.714854,-41.35553 2.552082,-61.2136 C 45.962959,118.72254 69.326277,95.49586 96.5,82.43915 108.38522,76.72842 125.57943,70.62204 127.11029,71.56816 129.73097,73.18783 131.24459,81 128.93772,81 127.07375,81 106.06941,90.46217 99.5,94.26129 60.989012,116.53238 38.020967,155.55772 38.004021,198.74996 c -0.0026,6.5224 -0.387814,10.25 -1.059345,10.25 -0.580428,0 -2.13181,-2.3625 -3.447516,-5.25 z M 206,119.00771 c 0,-0.54575 1.34273,-2.18866 2.98384,-3.6509 3.69764,-3.2946 7.01616,-9.96719 7.01616,-14.10743 0,-8.02332 -4.88132,-12.23952 -14.17742,-12.24564 -6.19125,-0.004 -8.09468,-1.418 -10.84388,-8.05517 -1.71743,-4.14623 -0.45951,-4.91333 8.0898,-4.93326 13.52246,-0.0315 22.52054,5.03105 24.94498,14.03475 2.43381,9.03848 -1.81536,20.44821 -9.9435,26.69994 C 209.96229,119.90942 206,121.01794 206,119.00771 z m -4,-49.19575 c -3.025,-0.52483 -7.86284,-0.72971 -10.75075,-0.45528 -5.465,0.51933 -7.04459,-0.23723 -9.30204,-4.45532 -1.805,-3.37267 -0.22272,-4.16386 6.81906,-3.40975 7.56414,0.81005 13.15846,2.60654 17.2998,5.55544 2.70682,1.92742 3.95017,4.11135 2.18393,3.83605 -0.4125,-0.0643 -3.225,-0.54631 -6.25,-1.07114 z"
       id="path3012"
       style="fill:#0668af;stroke:#0668af;stroke-opacity:1" />
  </g>
  <g
     id="layer4"
     style="display:inline">
    <path
       d="M 152.38071,191.84936 C 143.37746,171.58249 127.94201,146.6349 117.11232,134.84668 113.75055,131.18736 111,127.78813 111,127.29285 111,124.84797 123.90796,115 127.11252,115 c 1.00838,0 5.82924,3.99581 10.71301,8.87958 l 8.87957,8.87958 1.64786,8.87042 c 2.09894,11.29866 4.17208,24.41454 5.6698,35.87042 0.64716,4.95 1.54709,11.24996 1.99986,13.99996 1.21841,7.4004 -0.43896,7.5594 -3.64191,0.3494 z"
       id="path3037"
       style="fill:#f4a530" />
    <path
       d="M 61.316633,89.41924 C 52.301402,85.14388 39.146985,81.35237 27.568541,79.69202 21.868542,78.87464 18.473617,77.92085 18.18528,77.05584 c -0.826811,-2.48043 44.90074,-0.18611 59.633569,2.99204 4.975177,1.07324 8.118864,3.80622 5.414964,4.70752 -0.619304,0.20643 -3.865447,2.14592 -7.213652,4.30997 -3.348204,2.16405 -6.40996,3.89545 -6.803902,3.84757 -0.393943,-0.0479 -3.948774,-1.62005 -7.899626,-3.4937 z"
       id="path3033"
       style="fill:#f4a530" />
  </g>
  <g
     id="layer3"
     style="display:inline">
    <path
       d="m 166.53766,225.74996 c -0.21976,-0.6875 -1.35153,-9.35 -2.51503,-19.25 -5.60511,-47.69258 -12.37855,-86.65886 -18.67584,-107.43841 -8.75776,-28.89853 -21.53754,-54.0704 -34.18334,-67.32972 -7.10289,-7.44749 -10.23039,-9.13665 -15.38924,-8.31171 -3.729684,0.5964 -3.889546,0.51483 -3.226763,-1.64632 1.642117,-5.35448 4.6694,-6.52748 11.222533,-4.34844 12.9039,4.29078 33.18418,27.67752 45.89538,52.92547 13.19376,26.20646 24.75448,62.42949 32.76087,102.64917 4.25086,21.35406 8.0241,46.38406 7.28331,48.31456 -0.61626,1.6059 -14.65052,5.6854 -19.55902,5.6854 -1.76731,0 -3.3931,-0.5625 -3.61286,-1.25 z"
       id="path3055"
       style="fill:#ed6909;stroke:#ed6909;stroke-width:3;stroke-opacity:1" />
    <path
       d="m 206.57081,211.74996 c -0.25701,-1.2375 -0.95663,-5.4 -1.55472,-9.25 C 198.86086,162.8776 185.93868,115.96426 173.35384,87.5518 159.82697,57.01254 143.29172,33.05892 126.5,19.67745 c -4.56357,-3.63674 -4.73814,-3.92145 -2,-3.26175 8.09272,1.94978 25.61402,14.86811 33.86233,24.96645 6.99914,8.56898 18.35343,26.37168 24.45408,38.34222 14.75376,28.94942 25.89137,64.14022 34.18606,108.01549 3.67111,19.4186 3.82899,18.4816 -3.94825,23.4309 -5.36509,3.4143 -5.88497,3.4607 -6.48341,0.5792 z"
       id="path3053"
       style="fill:#ed6909;stroke:#ed6909;stroke-width:3;stroke-opacity:1" />
  </g>
</svg>
